<?xml version="1.0" encoding="UTF-8" standalone="no"?>
<!DOCTYPE svg PUBLIC "-//W3C//DTD SVG 1.1//EN"
 "http://www.w3.org/Graphics/SVG/1.1/DTD/svg11.dtd">
<!-- Generated by graphviz version 2.40.1 (20161225.0304)
 -->
<!-- Title: G Pages: 1 -->
<svg width="1432pt" height="1056pt"
 viewBox="0.00 0.00 1432.00 1056.00" xmlns="http://www.w3.org/2000/svg" xmlns:xlink="http://www.w3.org/1999/xlink">
<g id="graph0" class="graph" transform="scale(1 1) rotate(0) translate(4 1052)">
<title>G</title>
<polygon fill="#ffffff" stroke="transparent" points="-4,4 -4,-1052 1428,-1052 1428,4 -4,4"/>
<!-- A0 -->
<g id="node1" class="node">
<title>A0</title>
<polygon fill="none" stroke="#000000" points="357.5,-378 357.5,-410 453.5,-410 453.5,-378 357.5,-378"/>
<text text-anchor="start" x="384.944" y="-391" font-family="Helvetica,sans-Serif" font-size="10.00" fill="#000000">Filename</text>
<polygon fill="none" stroke="#000000" points="357.5,-322 357.5,-378 453.5,-378 453.5,-322 357.5,-322"/>
<text text-anchor="start" x="383.8295" y="-359" font-family="Helvetica,sans-Serif" font-size="10.00" fill="#000000">_filename</text>
<text text-anchor="start" x="390.498" y="-347" font-family="Helvetica,sans-Serif" font-size="10.00" fill="#000000">text:str</text>
<text text-anchor="start" x="367.157" y="-335" font-family="Helvetica,sans-Serif" font-size="10.00" fill="#000000">num_of_chars:int</text>
<polygon fill="none" stroke="#000000" points="357.5,-278 357.5,-322 453.5,-322 453.5,-278 357.5,-278"/>
<text text-anchor="start" x="384.665" y="-303" font-family="Helvetica,sans-Serif" font-size="10.00" fill="#000000">__init__()</text>
<text text-anchor="start" x="373.826" y="-291" font-family="Helvetica,sans-Serif" font-size="10.00" fill="#000000">get_instance()</text>
</g>
<!-- A1 -->
<g id="node2" class="node">
<title>A1</title>
<polygon fill="none" stroke="#000000" points="550.5,-82 550.5,-114 660.5,-114 660.5,-82 550.5,-82"/>
<text text-anchor="start" x="592.997" y="-95" font-family="Helvetica,sans-Serif" font-size="10.00" fill="#000000">Piece</text>
<polygon fill="none" stroke="#000000" points="550.5,-50 550.5,-82 660.5,-82 660.5,-50 550.5,-50"/>
<text text-anchor="start" x="581.049" y="-63" font-family="Helvetica,sans-Serif" font-size="10.00" fill="#000000"> pieceType</text>
<polygon fill="none" stroke="#000000" points="550.5,-18 550.5,-50 660.5,-50 660.5,-18 550.5,-18"/>
<text text-anchor="start" x="560.214" y="-31" font-family="Helvetica,sans-Serif" font-size="10.00" fill="#000000"> __init__(pieceType)</text>
</g>
<!-- A2 -->
<g id="node3" class="node">
<title>A2</title>
<polygon fill="none" stroke="#000000" points="633.5,-390 633.5,-422 749.5,-422 749.5,-390 633.5,-390"/>
<text text-anchor="start" x="678.997" y="-403" font-family="Helvetica,sans-Serif" font-size="10.00" fill="#000000">Menu</text>
<polygon fill="none" stroke="#000000" points="633.5,-298 633.5,-390 749.5,-390 749.5,-298 633.5,-298"/>
<text text-anchor="start" x="646.0625" y="-371" font-family="Helvetica,sans-Serif" font-size="10.00" fill="#000000">+save_game_button</text>
<text text-anchor="start" x="646.8985" y="-359" font-family="Helvetica,sans-Serif" font-size="10.00" fill="#000000">+start_game_button</text>
<text text-anchor="start" x="647.1735" y="-347" font-family="Helvetica,sans-Serif" font-size="10.00" fill="#000000">+load_game_button</text>
<text text-anchor="start" x="656.623" y="-335" font-family="Helvetica,sans-Serif" font-size="10.00" fill="#000000"> &#160;+editor_button</text>
<text text-anchor="start" x="658.292" y="-323" font-family="Helvetica,sans-Serif" font-size="10.00" fill="#000000"> &#160;+board:Board</text>
<text text-anchor="start" x="687.3315" y="-311" font-family="Helvetica,sans-Serif" font-size="10.00" fill="#000000">...</text>
<polygon fill="none" stroke="#000000" points="633.5,-266 633.5,-298 749.5,-298 749.5,-266 633.5,-266"/>
<text text-anchor="start" x="643.1555" y="-279" font-family="Helvetica,sans-Serif" font-size="10.00" fill="#000000">__init__(board:Board)</text>
</g>
<!-- A3 -->
<g id="node4" class="node">
<title>A3</title>
<polygon fill="none" stroke="#000000" points="623.5,-612 623.5,-644 759.5,-644 759.5,-612 623.5,-612"/>
<text text-anchor="start" x="675.6625" y="-625" font-family="Helvetica,sans-Serif" font-size="10.00" fill="#000000">Screen</text>
<polygon fill="none" stroke="#000000" points="623.5,-556 623.5,-612 759.5,-612 759.5,-556 623.5,-556"/>
<text text-anchor="start" x="663.577" y="-593" font-family="Helvetica,sans-Serif" font-size="10.00" fill="#000000">+__init__(...)</text>
<text text-anchor="start" x="669.1355" y="-581" font-family="Helvetica,sans-Serif" font-size="10.00" fill="#000000">+notify(...)</text>
<text text-anchor="start" x="633.016" y="-569" font-family="Helvetica,sans-Serif" font-size="10.00" fill="#000000">+__initalize_components()</text>
</g>
<!-- A3&#45;&gt;A0 -->
<g id="edge39" class="edge">
<title>A3&#45;&gt;A0</title>
<path fill="none" stroke="#000000" d="M642.3348,-555.992C591.9488,-510.8912 513.7355,-440.8821 461.1186,-393.7845"/>
<polygon fill="#000000" stroke="#000000" points="453.5476,-387.0076 463.9999,-390.3241 457.2731,-390.3424 460.9986,-393.6771 460.9986,-393.6771 460.9986,-393.6771 457.2731,-390.3424 457.9974,-397.0301 453.5476,-387.0076 453.5476,-387.0076"/>
</g>
<!-- A3&#45;&gt;A1 -->
<g id="edge40" class="edge">
<title>A3&#45;&gt;A1</title>
<path fill="none" stroke="#000000" d="M651.9733,-555.639C641.06,-540.8497 630.5606,-523.6249 624.5,-506 579.6431,-375.5507 588.5752,-210.4337 597.7599,-124.3038"/>
<polygon fill="#000000" stroke="#000000" points="598.8777,-114.1993 602.2508,-124.6335 598.3279,-119.169 597.7781,-124.1387 597.7781,-124.1387 597.7781,-124.1387 598.3279,-119.169 593.3054,-123.6439 598.8777,-114.1993 598.8777,-114.1993"/>
</g>
<!-- A3&#45;&gt;A2 -->
<g id="edge38" class="edge">
<title>A3&#45;&gt;A2</title>
<path fill="none" stroke="#000000" d="M691.5,-555.992C691.5,-522.0505 691.5,-474.002 691.5,-432.2284"/>
<polygon fill="#000000" stroke="#000000" points="691.5,-422.0348 696.0001,-432.0347 691.5,-427.0348 691.5001,-432.0348 691.5001,-432.0348 691.5001,-432.0348 691.5,-427.0348 687.0001,-432.0348 691.5,-422.0348 691.5,-422.0348"/>
</g>
<!-- A13 -->
<g id="node14" class="node">
<title>A13</title>
<polygon fill="none" stroke="#000000" points="767.5,-474 767.5,-506 1037.5,-506 1037.5,-474 767.5,-474"/>
<text text-anchor="start" x="889.1625" y="-487" font-family="Helvetica,sans-Serif" font-size="10.00" fill="#000000">Board</text>
<polygon fill="none" stroke="#000000" points="767.5,-334 767.5,-474 1037.5,-474 1037.5,-334 767.5,-334"/>
<text text-anchor="start" x="885.2785" y="-455" font-family="Helvetica,sans-Serif" font-size="10.00" fill="#000000">&#45;size:int</text>
<text text-anchor="start" x="884.4395" y="-443" font-family="Helvetica,sans-Serif" font-size="10.00" fill="#000000">&#45;state:...</text>
<text text-anchor="start" x="872.2185" y="-431" font-family="Helvetica,sans-Serif" font-size="10.00" fill="#000000">&#45;initialState:...</text>
<text text-anchor="start" x="848.596" y="-419" font-family="Helvetica,sans-Serif" font-size="10.00" fill="#000000"> &#160;&#160;&#45; custome_board: bool</text>
<text text-anchor="start" x="863.3285" y="-407" font-family="Helvetica,sans-Serif" font-size="10.00" fill="#000000"> &#160;&#45; player1: Player</text>
<text text-anchor="start" x="860.5495" y="-395" font-family="Helvetica,sans-Serif" font-size="10.00" fill="#000000"> &#160;&#160;&#160;&#45; player2: Player</text>
<text text-anchor="start" x="858.606" y="-383" font-family="Helvetica,sans-Serif" font-size="10.00" fill="#000000"> &#160;&#160;&#160;&#45; initialized: None</text>
<text text-anchor="start" x="838.5965" y="-371" font-family="Helvetica,sans-Serif" font-size="10.00" fill="#000000"> &#45; lastPiecetypeMoved: None</text>
<text text-anchor="start" x="861.105" y="-359" font-family="Helvetica,sans-Serif" font-size="10.00" fill="#000000"> &#160;&#160;&#160;&#45; difficulty: None</text>
<text text-anchor="start" x="898.3315" y="-347" font-family="Helvetica,sans-Serif" font-size="10.00" fill="#000000">...</text>
<polygon fill="none" stroke="#000000" points="767.5,-182 767.5,-334 1037.5,-334 1037.5,-182 767.5,-182"/>
<text text-anchor="start" x="849.5765" y="-315" font-family="Helvetica,sans-Serif" font-size="10.00" fill="#000000">+initialize_board():None</text>
<text text-anchor="start" x="840.683" y="-303" font-family="Helvetica,sans-Serif" font-size="10.00" fill="#000000"> +__initialize_states(): None</text>
<text text-anchor="start" x="795.6785" y="-291" font-family="Helvetica,sans-Serif" font-size="10.00" fill="#000000">+ make_real_move(lastMove: Movement): None</text>
<text text-anchor="start" x="815.126" y="-279" font-family="Helvetica,sans-Serif" font-size="10.00" fill="#000000">+computer_move(player: Player): None</text>
<text text-anchor="start" x="845.682" y="-267" font-family="Helvetica,sans-Serif" font-size="10.00" fill="#000000"> &#160;&#160;&#160;+ is_game_over(): bool</text>
<text text-anchor="start" x="777.3325" y="-255" font-family="Helvetica,sans-Serif" font-size="10.00" fill="#000000">+ get_all_possible_movements(pieceType: Piece): None</text>
<text text-anchor="start" x="810.957" y="-243" font-family="Helvetica,sans-Serif" font-size="10.00" fill="#000000"> &#160;+ best_move(player: Player): Movement</text>
<text text-anchor="start" x="836.2335" y="-231" font-family="Helvetica,sans-Serif" font-size="10.00" fill="#000000"> + get_score(piece: Piece): int</text>
<text text-anchor="start" x="778.177" y="-219" font-family="Helvetica,sans-Serif" font-size="10.00" fill="#000000"> + best_min_max_movement(player: Player): Movement</text>
<text text-anchor="start" x="862.079" y="-207" font-family="Helvetica,sans-Serif" font-size="10.00" fill="#000000">+ get_winner(): str</text>
<text text-anchor="start" x="896.942" y="-195" font-family="Helvetica,sans-Serif" font-size="10.00" fill="#000000"> ...</text>
</g>
<!-- A3&#45;&gt;A13 -->
<g id="edge37" class="edge">
<title>A3&#45;&gt;A13</title>
<path fill="none" stroke="#000000" d="M727.7722,-555.992C738.0067,-543.5748 749.7973,-529.2696 762.3217,-514.0742"/>
<polygon fill="#000000" stroke="#000000" points="768.9336,-506.0521 766.0458,-516.631 765.7535,-509.9105 762.5733,-513.7689 762.5733,-513.7689 762.5733,-513.7689 765.7535,-509.9105 759.1008,-510.9067 768.9336,-506.0521 768.9336,-506.0521"/>
</g>
<!-- A4 -->
<g id="node5" class="node">
<title>A4</title>
<polygon fill="none" stroke="#000000" points="705.5,-1016 705.5,-1048 834.5,-1048 834.5,-1016 705.5,-1016"/>
<text text-anchor="start" x="715.2655" y="-1029" font-family="Helvetica,sans-Serif" font-size="10.00" fill="#000000">ScreenMediatorInterface</text>
<polygon fill="none" stroke="#000000" points="705.5,-984 705.5,-1016 834.5,-1016 834.5,-984 705.5,-984"/>
<text text-anchor="start" x="731.938" y="-997" font-family="Helvetica,sans-Serif" font-size="10.00" fill="#000000">notify(self, event)</text>
</g>
<!-- A4&#45;&gt;A3 -->
<g id="edge1" class="edge">
<title>A4&#45;&gt;A3</title>
<path fill="none" stroke="#000000" stroke-dasharray="5,2" d="M751.0923,-974.4248C746.0386,-961.6613 740.9946,-947.4354 737.5,-934 723.4838,-880.113 704.8948,-721.854 696.2707,-644.1154"/>
<polygon fill="none" stroke="#000000" points="747.9219,-975.9198 754.9333,-983.8628 754.4056,-973.2811 747.9219,-975.9198"/>
</g>
<!-- A5 -->
<g id="node6" class="node">
<title>A5</title>
<polygon fill="none" stroke="#000000" points="489.5,-854 489.5,-886 690.5,-886 690.5,-854 489.5,-854"/>
<text text-anchor="start" x="537.489" y="-867" font-family="Helvetica,sans-Serif" font-size="10.00" fill="#000000">MainScreenComponent</text>
<polygon fill="none" stroke="#000000" points="489.5,-822 489.5,-854 690.5,-854 690.5,-822 489.5,-822"/>
<text text-anchor="start" x="556.1055" y="-835" font-family="Helvetica,sans-Serif" font-size="10.00" fill="#000000">&#45;screen:Screen</text>
<polygon fill="none" stroke="#000000" points="489.5,-742 489.5,-822 690.5,-822 690.5,-742 489.5,-742"/>
<text text-anchor="start" x="534.0155" y="-803" font-family="Helvetica,sans-Serif" font-size="10.00" fill="#000000">+__init__(screen:Screen)</text>
<text text-anchor="start" x="539.8535" y="-791" font-family="Helvetica,sans-Serif" font-size="10.00" fill="#000000">+display_screen():void</text>
<text text-anchor="start" x="553.888" y="-779" font-family="Helvetica,sans-Serif" font-size="10.00" fill="#000000"> &#45; __draw(): void</text>
<text text-anchor="start" x="499.141" y="-767" font-family="Helvetica,sans-Serif" font-size="10.00" fill="#000000"> &#45; __check_menu_button_pressed(): void</text>
<text text-anchor="start" x="585.8315" y="-755" font-family="Helvetica,sans-Serif" font-size="10.00" fill="#000000">...</text>
</g>
<!-- A4&#45;&gt;A5 -->
<g id="edge2" class="edge">
<title>A4&#45;&gt;A5</title>
<path fill="none" stroke="#000000" d="M734.1309,-976.308C711.2428,-950.6225 680.7718,-916.4273 653.702,-886.0489"/>
<polygon fill="#000000" stroke="#000000" points="740.9785,-983.9925 730.9659,-979.5203 737.652,-980.2595 734.3256,-976.5265 734.3256,-976.5265 734.3256,-976.5265 737.652,-980.2595 737.6853,-973.5328 740.9785,-983.9925 740.9785,-983.9925"/>
</g>
<!-- A6 -->
<g id="node7" class="node">
<title>A6</title>
<polygon fill="none" stroke="#000000" points="746.5,-872 746.5,-904 894.5,-904 894.5,-872 746.5,-872"/>
<text text-anchor="start" x="767.704" y="-885" font-family="Helvetica,sans-Serif" font-size="10.00" fill="#000000">LoadScreenComponent</text>
<polygon fill="none" stroke="#000000" points="746.5,-792 746.5,-872 894.5,-872 894.5,-792 746.5,-792"/>
<text text-anchor="start" x="786.6055" y="-853" font-family="Helvetica,sans-Serif" font-size="10.00" fill="#000000">&#45;screen:Screen</text>
<text text-anchor="start" x="791.326" y="-841" font-family="Helvetica,sans-Serif" font-size="10.00" fill="#000000">&#45;board:Board</text>
<text text-anchor="start" x="788.2715" y="-829" font-family="Helvetica,sans-Serif" font-size="10.00" fill="#000000"> &#45; menu: Menu</text>
<text text-anchor="start" x="756.327" y="-817" font-family="Helvetica,sans-Serif" font-size="10.00" fill="#000000"> &#45; slider: screen_specs.Slider</text>
<text text-anchor="start" x="782.163" y="-805" font-family="Helvetica,sans-Serif" font-size="10.00" fill="#000000"> &#45; directory: None</text>
<polygon fill="none" stroke="#000000" points="746.5,-724 746.5,-792 894.5,-792 894.5,-724 746.5,-724"/>
<text text-anchor="start" x="792.577" y="-773" font-family="Helvetica,sans-Serif" font-size="10.00" fill="#000000">+__init__(...)</text>
<text text-anchor="start" x="768.964" y="-761" font-family="Helvetica,sans-Serif" font-size="10.00" fill="#000000">+display_screen(): void</text>
<text text-anchor="start" x="781.6085" y="-749" font-family="Helvetica,sans-Serif" font-size="10.00" fill="#000000"> &#45; __draw(): None</text>
<text text-anchor="start" x="816.3315" y="-737" font-family="Helvetica,sans-Serif" font-size="10.00" fill="#000000">...</text>
</g>
<!-- A4&#45;&gt;A6 -->
<g id="edge3" class="edge">
<title>A4&#45;&gt;A6</title>
<path fill="none" stroke="#000000" d="M780.0641,-974.158C785.1866,-953.8689 791.5509,-928.661 797.703,-904.2939"/>
<polygon fill="#000000" stroke="#000000" points="777.5811,-983.9925 775.666,-973.1951 778.8051,-979.1446 780.0291,-974.2967 780.0291,-974.2967 780.0291,-974.2967 778.8051,-979.1446 784.3922,-975.3984 777.5811,-983.9925 777.5811,-983.9925"/>
</g>
<!-- A7 -->
<g id="node8" class="node">
<title>A7</title>
<polygon fill="none" stroke="#000000" points="1277.5,-878 1277.5,-910 1424.5,-910 1424.5,-878 1277.5,-878"/>
<text text-anchor="start" x="1290.151" y="-891" font-family="Helvetica,sans-Serif" font-size="10.00" fill="#000000">FileLoadScreenComponent</text>
<polygon fill="none" stroke="#000000" points="1277.5,-810 1277.5,-878 1424.5,-878 1424.5,-810 1277.5,-810"/>
<text text-anchor="start" x="1320.571" y="-859" font-family="Helvetica,sans-Serif" font-size="10.00" fill="#000000">+board:Board</text>
<text text-anchor="start" x="1289.7405" y="-847" font-family="Helvetica,sans-Serif" font-size="10.00" fill="#000000">+slider:screen_specs.Slider</text>
<text text-anchor="start" x="1314.461" y="-835" font-family="Helvetica,sans-Serif" font-size="10.00" fill="#000000">+screen: Screen</text>
<text text-anchor="start" x="1314.187" y="-823" font-family="Helvetica,sans-Serif" font-size="10.00" fill="#000000">+directory: None</text>
<polygon fill="none" stroke="#000000" points="1277.5,-718 1277.5,-810 1424.5,-810 1424.5,-718 1277.5,-718"/>
<text text-anchor="start" x="1323.077" y="-791" font-family="Helvetica,sans-Serif" font-size="10.00" fill="#000000">+__init__(...)</text>
<text text-anchor="start" x="1296.6845" y="-779" font-family="Helvetica,sans-Serif" font-size="10.00" fill="#000000">+display_screen(): None</text>
<text text-anchor="start" x="1313.498" y="-767" font-family="Helvetica,sans-Serif" font-size="10.00" fill="#000000"> &#45;__draw(): None</text>
<text text-anchor="start" x="1294.1765" y="-755" font-family="Helvetica,sans-Serif" font-size="10.00" fill="#000000">+load_game(data): Board</text>
<text text-anchor="start" x="1287.1045" y="-743" font-family="Helvetica,sans-Serif" font-size="10.00" fill="#000000"> &#45;__initialize_game(...): None</text>
<text text-anchor="start" x="1346.8315" y="-731" font-family="Helvetica,sans-Serif" font-size="10.00" fill="#000000">...</text>
</g>
<!-- A4&#45;&gt;A7 -->
<g id="edge4" class="edge">
<title>A4&#45;&gt;A7</title>
<path fill="none" stroke="#000000" d="M844.7721,-1010.7872C966.1607,-1001.2074 1198.5326,-977.6668 1267.5,-934 1277.773,-927.4957 1287.1115,-919.2117 1295.505,-910.0441"/>
<polygon fill="#000000" stroke="#000000" points="834.4479,-1011.5894 844.0692,-1006.3282 839.4329,-1011.202 844.4178,-1010.8146 844.4178,-1010.8146 844.4178,-1010.8146 839.4329,-1011.202 844.7665,-1015.3011 834.4479,-1011.5894 834.4479,-1011.5894"/>
</g>
<!-- A8 -->
<g id="node9" class="node">
<title>A8</title>
<polygon fill="none" stroke="#000000" points="913.5,-872 913.5,-904 1068.5,-904 1068.5,-872 913.5,-872"/>
<text text-anchor="start" x="935.709" y="-885" font-family="Helvetica,sans-Serif" font-size="10.00" fill="#000000">GameScreenComponent</text>
<polygon fill="none" stroke="#000000" points="913.5,-816 913.5,-872 1068.5,-872 1068.5,-816 913.5,-816"/>
<text text-anchor="start" x="955.8505" y="-853" font-family="Helvetica,sans-Serif" font-size="10.00" fill="#000000">+screen:Screen</text>
<text text-anchor="start" x="959.1815" y="-841" font-family="Helvetica,sans-Serif" font-size="10.00" fill="#000000">+board: Board</text>
<text text-anchor="start" x="958.906" y="-829" font-family="Helvetica,sans-Serif" font-size="10.00" fill="#000000"> +menu: Menu</text>
<polygon fill="none" stroke="#000000" points="913.5,-724 913.5,-816 1068.5,-816 1068.5,-724 913.5,-724"/>
<text text-anchor="start" x="963.077" y="-797" font-family="Helvetica,sans-Serif" font-size="10.00" fill="#000000">+__init__(...)</text>
<text text-anchor="start" x="954.8875" y="-785" font-family="Helvetica,sans-Serif" font-size="10.00" fill="#000000">&#45;__draw(): None</text>
<text text-anchor="start" x="925.986" y="-773" font-family="Helvetica,sans-Serif" font-size="10.00" fill="#000000">&#45;check_piece_played(): None</text>
<text text-anchor="start" x="923.4865" y="-761" font-family="Helvetica,sans-Serif" font-size="10.00" fill="#000000"> &#45;__check_game_over(): None</text>
<text text-anchor="start" x="926.2635" y="-749" font-family="Helvetica,sans-Serif" font-size="10.00" fill="#000000"> &#45;__draw_exit_button(): None</text>
<text text-anchor="start" x="986.8315" y="-737" font-family="Helvetica,sans-Serif" font-size="10.00" fill="#000000">...</text>
</g>
<!-- A4&#45;&gt;A8 -->
<g id="edge5" class="edge">
<title>A4&#45;&gt;A8</title>
<path fill="none" stroke="#000000" d="M841.7502,-978.8875C862.8802,-966.2192 885.1964,-950.9262 903.5,-934 913.2297,-925.0025 922.5656,-914.7687 931.2724,-904.1601"/>
<polygon fill="#000000" stroke="#000000" points="833.0976,-983.9717 839.4397,-975.0258 837.4085,-981.4386 841.7194,-978.9056 841.7194,-978.9056 841.7194,-978.9056 837.4085,-981.4386 843.9992,-982.7854 833.0976,-983.9717 833.0976,-983.9717"/>
</g>
<!-- A9 -->
<g id="node10" class="node">
<title>A9</title>
<polygon fill="none" stroke="#000000" points=".5,-890 .5,-922 157.5,-922 157.5,-890 .5,-890"/>
<text text-anchor="start" x="16.211" y="-903" font-family="Helvetica,sans-Serif" font-size="10.00" fill="#000000">FileSaverScreenComponent</text>
<polygon fill="none" stroke="#000000" points=".5,-798 .5,-890 157.5,-890 157.5,-798 .5,-798"/>
<text text-anchor="start" x="43.8505" y="-871" font-family="Helvetica,sans-Serif" font-size="10.00" fill="#000000">+screen:Screen</text>
<text text-anchor="start" x="47.1815" y="-859" font-family="Helvetica,sans-Serif" font-size="10.00" fill="#000000">+board: Board</text>
<text text-anchor="start" x="46.906" y="-847" font-family="Helvetica,sans-Serif" font-size="10.00" fill="#000000"> +menu: Menu</text>
<text text-anchor="start" x="32.465" y="-835" font-family="Helvetica,sans-Serif" font-size="10.00" fill="#000000"> +filename: Filename</text>
<text text-anchor="start" x="34.4045" y="-823" font-family="Helvetica,sans-Serif" font-size="10.00" fill="#000000"> +frame_counter: int</text>
<text text-anchor="start" x="34.9585" y="-811" font-family="Helvetica,sans-Serif" font-size="10.00" fill="#000000"> +num_of_chars: int</text>
<polygon fill="none" stroke="#000000" points=".5,-706 .5,-798 157.5,-798 157.5,-706 .5,-706"/>
<text text-anchor="start" x="51.077" y="-779" font-family="Helvetica,sans-Serif" font-size="10.00" fill="#000000">+__init__(...)</text>
<text text-anchor="start" x="24.6845" y="-767" font-family="Helvetica,sans-Serif" font-size="10.00" fill="#000000">+display_screen(): None</text>
<text text-anchor="start" x="41.498" y="-755" font-family="Helvetica,sans-Serif" font-size="10.00" fill="#000000"> &#45;__draw(): None</text>
<text text-anchor="start" x="10.098" y="-743" font-family="Helvetica,sans-Serif" font-size="10.00" fill="#000000">&#45;__create_action_rects(): None</text>
<text text-anchor="start" x="17.876" y="-731" font-family="Helvetica,sans-Serif" font-size="10.00" fill="#000000">&#45;__do_final_checks(): None</text>
<text text-anchor="start" x="74.8315" y="-719" font-family="Helvetica,sans-Serif" font-size="10.00" fill="#000000">...</text>
</g>
<!-- A4&#45;&gt;A9 -->
<g id="edge6" class="edge">
<title>A4&#45;&gt;A9</title>
<path fill="none" stroke="#000000" d="M694.4696,-1013.0457C553.2476,-1006.3198 254.2545,-986.1982 166.5,-934 160.727,-930.5661 155.219,-926.5919 149.9816,-922.2227"/>
<polygon fill="#000000" stroke="#000000" points="704.7696,-1013.5258 694.5709,-1017.5552 699.775,-1013.2929 694.7805,-1013.0601 694.7805,-1013.0601 694.7805,-1013.0601 699.775,-1013.2929 694.99,-1008.565 704.7696,-1013.5258 704.7696,-1013.5258"/>
</g>
<!-- A10 -->
<g id="node11" class="node">
<title>A10</title>
<polygon fill="none" stroke="#000000" points="175.5,-872 175.5,-904 352.5,-904 352.5,-872 175.5,-872"/>
<text text-anchor="start" x="209.265" y="-885" font-family="Helvetica,sans-Serif" font-size="10.00" fill="#000000">EditorScreenComponent</text>
<polygon fill="none" stroke="#000000" points="175.5,-804 175.5,-872 352.5,-872 352.5,-804 175.5,-804"/>
<text text-anchor="start" x="228.8505" y="-853" font-family="Helvetica,sans-Serif" font-size="10.00" fill="#000000">+screen:Screen</text>
<text text-anchor="start" x="232.1815" y="-841" font-family="Helvetica,sans-Serif" font-size="10.00" fill="#000000">+board: Board</text>
<text text-anchor="start" x="232.461" y="-829" font-family="Helvetica,sans-Serif" font-size="10.00" fill="#000000"> +piece: Piece</text>
<text text-anchor="start" x="229.4065" y="-817" font-family="Helvetica,sans-Serif" font-size="10.00" fill="#000000"> +is_black: bool</text>
<polygon fill="none" stroke="#000000" points="175.5,-724 175.5,-804 352.5,-804 352.5,-724 175.5,-724"/>
<text text-anchor="start" x="236.077" y="-785" font-family="Helvetica,sans-Serif" font-size="10.00" fill="#000000">+__init__(...)</text>
<text text-anchor="start" x="211.074" y="-773" font-family="Helvetica,sans-Serif" font-size="10.00" fill="#000000">+display_screen():None</text>
<text text-anchor="start" x="227.8875" y="-761" font-family="Helvetica,sans-Serif" font-size="10.00" fill="#000000"> &#45;__draw():None</text>
<text text-anchor="start" x="185.0945" y="-749" font-family="Helvetica,sans-Serif" font-size="10.00" fill="#000000">&#45;__check_final_user_inputs(): None</text>
<text text-anchor="start" x="259.8315" y="-737" font-family="Helvetica,sans-Serif" font-size="10.00" fill="#000000">...</text>
</g>
<!-- A4&#45;&gt;A10 -->
<g id="edge7" class="edge">
<title>A4&#45;&gt;A10</title>
<path fill="none" stroke="#000000" d="M694.8279,-1007.1112C592.9335,-993.9557 416.6778,-967.2372 361.5,-934 348.2516,-926.0196 336.0106,-915.5702 324.9928,-904.1636"/>
<polygon fill="#000000" stroke="#000000" points="704.7524,-1008.3801 694.2625,-1011.5755 699.7928,-1007.746 694.8332,-1007.1118 694.8332,-1007.1118 694.8332,-1007.1118 699.7928,-1007.746 695.4039,-1002.6482 704.7524,-1008.3801 704.7524,-1008.3801"/>
</g>
<!-- A11 -->
<g id="node12" class="node">
<title>A11</title>
<polygon fill="none" stroke="#000000" points="1086.5,-902 1086.5,-934 1258.5,-934 1258.5,-902 1086.5,-902"/>
<text text-anchor="start" x="1116.375" y="-915" font-family="Helvetica,sans-Serif" font-size="10.00" fill="#000000">ConfigScreenComponent</text>
<polygon fill="none" stroke="#000000" points="1086.5,-810 1086.5,-902 1258.5,-902 1258.5,-810 1086.5,-810"/>
<text text-anchor="start" x="1137.3505" y="-883" font-family="Helvetica,sans-Serif" font-size="10.00" fill="#000000">+screen:Screen</text>
<text text-anchor="start" x="1142.071" y="-871" font-family="Helvetica,sans-Serif" font-size="10.00" fill="#000000">+board:Board</text>
<text text-anchor="start" x="1116.79" y="-859" font-family="Helvetica,sans-Serif" font-size="10.00" fill="#000000"> +custom_board_size: int</text>
<text text-anchor="start" x="1096.239" y="-847" font-family="Helvetica,sans-Serif" font-size="10.00" fill="#000000"> +difficulty: screen_specs.Difficulty</text>
<text text-anchor="start" x="1140.686" y="-835" font-family="Helvetica,sans-Serif" font-size="10.00" fill="#000000"> +clicked: bool</text>
<text text-anchor="start" x="1133.182" y="-823" font-family="Helvetica,sans-Serif" font-size="10.00" fill="#000000"> +mouse: Vector2</text>
<polygon fill="none" stroke="#000000" points="1086.5,-694 1086.5,-810 1258.5,-810 1258.5,-694 1086.5,-694"/>
<text text-anchor="start" x="1144.577" y="-791" font-family="Helvetica,sans-Serif" font-size="10.00" fill="#000000">+__init__(...)</text>
<text text-anchor="start" x="1131.522" y="-767" font-family="Helvetica,sans-Serif" font-size="10.00" fill="#000000">+display_screen():</text>
<text text-anchor="start" x="1160.552" y="-755" font-family="Helvetica,sans-Serif" font-size="10.00" fill="#000000">None</text>
<text text-anchor="start" x="1148.3355" y="-743" font-family="Helvetica,sans-Serif" font-size="10.00" fill="#000000"> &#45;__draw():</text>
<text text-anchor="start" x="1167.2215" y="-731" font-family="Helvetica,sans-Serif" font-size="10.00" fill="#000000">int</text>
<text text-anchor="start" x="1109.994" y="-719" font-family="Helvetica,sans-Serif" font-size="10.00" fill="#000000">&#45;__initialize_game(...): None</text>
<text text-anchor="start" x="1168.3315" y="-707" font-family="Helvetica,sans-Serif" font-size="10.00" fill="#000000">...</text>
</g>
<!-- A4&#45;&gt;A11 -->
<g id="edge8" class="edge">
<title>A4&#45;&gt;A11</title>
<path fill="none" stroke="#000000" d="M844.5006,-1009.4251C910.4471,-1000.6798 1006.6861,-980.4636 1077.5,-934 1080.4992,-932.0321 1083.4463,-929.9381 1086.3383,-927.7366"/>
<polygon fill="#000000" stroke="#000000" points="834.1853,-1010.7325 843.5401,-1005.0108 839.1456,-1010.1038 844.1059,-1009.4751 844.1059,-1009.4751 844.1059,-1009.4751 839.1456,-1010.1038 844.6718,-1013.9394 834.1853,-1010.7325 834.1853,-1010.7325"/>
</g>
<!-- A5&#45;&gt;A3 -->
<g id="edge9" class="edge">
<title>A5&#45;&gt;A3</title>
<path fill="none" stroke="#000000" d="M628.2881,-732.621C640.6585,-706.6675 654.0473,-678.5772 665.3047,-654.9589"/>
<polygon fill="#000000" stroke="#000000" points="623.8903,-741.8477 624.1308,-730.8844 626.0417,-737.3342 628.193,-732.8206 628.193,-732.8206 628.193,-732.8206 626.0417,-737.3342 632.2552,-734.7568 623.8903,-741.8477 623.8903,-741.8477"/>
<polygon fill="none" stroke="#000000" points="665.3171,-654.9327 664.2879,-647.7954 670.4803,-644.1002 671.5095,-651.2375 665.3171,-654.9327"/>
</g>
<!-- A6&#45;&gt;A2 -->
<g id="edge16" class="edge">
<title>A6&#45;&gt;A2</title>
<path fill="none" stroke="#000000" d="M803.9188,-713.8521C795.0361,-665.7176 782.9386,-607.4414 768.5,-556 755.8546,-510.9471 738.2366,-461.7607 723.0438,-422.1167"/>
<polygon fill="none" stroke="#000000" points="800.5257,-714.7549 805.7652,-723.9635 807.4118,-713.4974 800.5257,-714.7549"/>
</g>
<!-- A6&#45;&gt;A3 -->
<g id="edge10" class="edge">
<title>A6&#45;&gt;A3</title>
<path fill="none" stroke="#000000" d="M760.8902,-715.1125C748.3738,-694.3488 735.6104,-673.1754 724.4999,-654.7439"/>
<polygon fill="#000000" stroke="#000000" points="766.1663,-723.865 757.1497,-717.6238 763.5849,-719.5828 761.0036,-715.3006 761.0036,-715.3006 761.0036,-715.3006 763.5849,-719.5828 764.8576,-712.9774 766.1663,-723.865 766.1663,-723.865"/>
<polygon fill="none" stroke="#000000" points="724.3586,-654.5096 717.8353,-651.4361 718.1635,-644.2324 724.6868,-647.306 724.3586,-654.5096"/>
</g>
<!-- A6&#45;&gt;A13 -->
<g id="edge17" class="edge">
<title>A6&#45;&gt;A13</title>
<path fill="none" stroke="#000000" d="M837.9438,-714.0174C848.4845,-653.6009 862.1691,-575.1651 874.2244,-506.0673"/>
<polygon fill="none" stroke="#000000" points="834.4843,-713.4826 836.2134,-723.9354 841.3801,-714.6858 834.4843,-713.4826"/>
</g>
<!-- A7&#45;&gt;A1 -->
<g id="edge21" class="edge">
<title>A7&#45;&gt;A1</title>
<path fill="none" stroke="#000000" d="M1278.4526,-709.6043C1274.7569,-704.3217 1271.0901,-699.0963 1267.5,-694 1224.0288,-632.2907 1213.3412,-616.721 1168.5,-556 1151.919,-533.5471 1141.3689,-531.7085 1130.5,-506 1073.7883,-371.8581 1179.8013,-289.4575 1081.5,-182 1024.9498,-120.1824 773.557,-84.8133 660.6843,-71.7938"/>
<polygon fill="none" stroke="#000000" points="1275.6811,-711.7486 1284.277,-717.9422 1281.4197,-707.7399 1275.6811,-711.7486"/>
</g>
<!-- A7&#45;&gt;A2 -->
<g id="edge18" class="edge">
<title>A7&#45;&gt;A2</title>
<path fill="none" stroke="#000000" d="M1286.0975,-710.133C1280.2493,-704.2388 1274.0444,-698.7797 1267.5,-694 1205.9635,-649.0569 1175.1756,-669.8694 1103.5,-644 1008.3132,-609.6449 987.6361,-593.1373 893.5,-556 833.9812,-532.5194 804.5821,-550.3877 758.5,-506 735.1548,-483.5132 719.638,-451.6989 709.4763,-422.2097"/>
<polygon fill="none" stroke="#000000" points="1283.9149,-712.9215 1293.3129,-717.8131 1289.0166,-708.1285 1283.9149,-712.9215"/>
</g>
<!-- A7&#45;&gt;A3 -->
<g id="edge11" class="edge">
<title>A7&#45;&gt;A3</title>
<path fill="none" stroke="#000000" d="M1288.2929,-710.3005C1281.8571,-704.1539 1274.9255,-698.6083 1267.5,-694 1136.9765,-612.9973 1077.0164,-669.3101 925.5,-644 874.1309,-635.419 816.6464,-624.6269 771.5084,-615.8785"/>
<polygon fill="#000000" stroke="#000000" points="1295.6202,-717.772 1285.4055,-713.7832 1292.1193,-714.2022 1288.6184,-710.6323 1288.6184,-710.6323 1288.6184,-710.6323 1292.1193,-714.2022 1291.8312,-707.4815 1295.6202,-717.772 1295.6202,-717.772"/>
<polygon fill="none" stroke="#000000" points="771.4958,-615.8762 764.8425,-618.6571 759.7165,-613.5852 766.3698,-610.8043 771.4958,-615.8762"/>
</g>
<!-- A7&#45;&gt;A13 -->
<g id="edge19" class="edge">
<title>A7&#45;&gt;A13</title>
<path fill="none" stroke="#000000" d="M1281.4935,-709.7495C1276.9265,-704.2851 1272.2492,-698.9957 1267.5,-694 1242.388,-667.5845 1229.888,-668.0477 1202.5,-644 1146.5974,-594.9155 1088.1089,-537.8652 1037.7766,-486.775"/>
<polygon fill="none" stroke="#000000" points="1279.0738,-712.3211 1288.1015,-717.8666 1284.5025,-707.9018 1279.0738,-712.3211"/>
</g>
<!-- A14 -->
<g id="node15" class="node">
<title>A14</title>
<polygon fill="none" stroke="#000000" points="1037.5,-100 1037.5,-132 1147.5,-132 1147.5,-100 1037.5,-100"/>
<text text-anchor="start" x="1069.1635" y="-113" font-family="Helvetica,sans-Serif" font-size="10.00" fill="#000000">Movement</text>
<polygon fill="none" stroke="#000000" points="1037.5,-44 1037.5,-100 1147.5,-100 1147.5,-44 1037.5,-44"/>
<text text-anchor="start" x="1069.4385" y="-81" font-family="Helvetica,sans-Serif" font-size="10.00" fill="#000000">pieceType</text>
<text text-anchor="start" x="1083.332" y="-69" font-family="Helvetica,sans-Serif" font-size="10.00" fill="#000000">x:int</text>
<text text-anchor="start" x="1083.332" y="-57" font-family="Helvetica,sans-Serif" font-size="10.00" fill="#000000">y:int</text>
<polygon fill="none" stroke="#000000" points="1037.5,0 1037.5,-44 1147.5,-44 1147.5,0 1037.5,0"/>
<text text-anchor="start" x="1047.489" y="-25" font-family="Helvetica,sans-Serif" font-size="10.00" fill="#000000"> __init__(pieceType,</text>
<text text-anchor="start" x="1069.7205" y="-13" font-family="Helvetica,sans-Serif" font-size="10.00" fill="#000000">x:int, y:int)</text>
</g>
<!-- A7&#45;&gt;A14 -->
<g id="edge20" class="edge">
<title>A7&#45;&gt;A14</title>
<path fill="none" stroke="#000000" d="M1313.9633,-708.072C1259.8831,-551.2813 1160.1078,-262.0101 1115.3153,-132.1467"/>
<polygon fill="none" stroke="#000000" points="1310.7297,-709.4312 1317.2992,-717.7434 1317.3472,-707.1487 1310.7297,-709.4312"/>
</g>
<!-- A15 -->
<g id="node16" class="node">
<title>A15</title>
<polygon fill="none" stroke="#000000" points="1166.5,-82 1166.5,-114 1291.5,-114 1291.5,-82 1166.5,-82"/>
<text text-anchor="start" x="1214.8325" y="-95" font-family="Helvetica,sans-Serif" font-size="10.00" fill="#000000">Player</text>
<polygon fill="none" stroke="#000000" points="1166.5,-50 1166.5,-82 1291.5,-82 1291.5,-50 1166.5,-50"/>
<text text-anchor="start" x="1197.051" y="-63" font-family="Helvetica,sans-Serif" font-size="10.00" fill="#000000"> isHuman:bool</text>
<polygon fill="none" stroke="#000000" points="1166.5,-18 1166.5,-50 1291.5,-50 1291.5,-18 1166.5,-18"/>
<text text-anchor="start" x="1176.216" y="-31" font-family="Helvetica,sans-Serif" font-size="10.00" fill="#000000"> __init__(isHuman:bool)</text>
</g>
<!-- A7&#45;&gt;A15 -->
<g id="edge22" class="edge">
<title>A7&#45;&gt;A15</title>
<path fill="none" stroke="#000000" d="M1357.1415,-707.6336C1361.7553,-579.5637 1358.7886,-359.5419 1300.5,-182 1292.6628,-158.1286 1278.9715,-134.1377 1265.6178,-114.2191"/>
<polygon fill="none" stroke="#000000" points="1353.6362,-707.7068 1356.7509,-717.8335 1360.6311,-707.9747 1353.6362,-707.7068"/>
</g>
<!-- A8&#45;&gt;A2 -->
<g id="edge23" class="edge">
<title>A8&#45;&gt;A2</title>
<path fill="none" stroke="#000000" d="M921.605,-715.5666C915.6552,-708.1282 909.5817,-700.8567 903.5,-694 881.796,-669.5304 870.5539,-669.0312 849.5,-644 819.5048,-608.3384 818.2698,-594.8249 792.5,-556 777.6387,-533.6099 771.2578,-529.6519 758.5,-506 744.1956,-479.4808 730.9348,-449.2452 720.0497,-422.1336"/>
<polygon fill="none" stroke="#000000" points="919.069,-718.0032 928.0072,-723.6916 924.5672,-713.6708 919.069,-718.0032"/>
</g>
<!-- A8&#45;&gt;A3 -->
<g id="edge12" class="edge">
<title>A8&#45;&gt;A3</title>
<path fill="none" stroke="#000000" d="M926.3633,-715.7772C919.1731,-707.9033 911.5259,-700.4958 903.5,-694 881.8606,-676.486 821.7355,-650.4635 771.0194,-630.2359"/>
<polygon fill="#000000" stroke="#000000" points="933.3982,-723.79 923.4189,-719.2442 930.0994,-720.0326 926.8006,-716.2752 926.8006,-716.2752 926.8006,-716.2752 930.0994,-720.0326 930.1822,-713.3063 933.3982,-723.79 933.3982,-723.79"/>
<polygon fill="none" stroke="#000000" points="770.8518,-630.1696 763.8006,-631.6799 759.6945,-625.7521 766.7457,-624.2417 770.8518,-630.1696"/>
</g>
<!-- A8&#45;&gt;A13 -->
<g id="edge24" class="edge">
<title>A8&#45;&gt;A13</title>
<path fill="none" stroke="#000000" d="M971.7799,-714.0174C960.4678,-653.6009 945.782,-575.1651 932.8445,-506.0673"/>
<polygon fill="none" stroke="#000000" points="968.3562,-714.7503 973.6368,-723.9354 975.2366,-713.462 968.3562,-714.7503"/>
</g>
<!-- A8&#45;&gt;A14 -->
<g id="edge25" class="edge">
<title>A8&#45;&gt;A14</title>
<path fill="none" stroke="#000000" d="M1010.6368,-714.1273C1022.2648,-654.0038 1036.5174,-575.8215 1046.5,-506 1065.3875,-373.8943 1079.8265,-218.4264 1087.155,-132.163"/>
<polygon fill="none" stroke="#000000" points="1007.191,-713.5123 1008.7204,-723.9961 1014.0626,-714.8467 1007.191,-713.5123"/>
</g>
<!-- A9&#45;&gt;A0 -->
<g id="edge28" class="edge">
<title>A9&#45;&gt;A0</title>
<path fill="none" stroke="#000000" d="M134.2826,-696.9194C157.7644,-651.5231 186.7671,-599.9887 217.5,-556 259.7607,-495.5111 317.0419,-433.1232 357.2323,-391.8289"/>
<polygon fill="none" stroke="#000000" points="131.1188,-695.4187 129.661,-705.9127 137.3448,-698.6182 131.1188,-695.4187"/>
</g>
<!-- A9&#45;&gt;A1 -->
<g id="edge29" class="edge">
<title>A9&#45;&gt;A1</title>
<path fill="none" stroke="#000000" d="M76.2928,-695.3276C80.2148,-554.7296 108.2644,-321.9664 240.5,-182 283.3088,-136.6885 459.2106,-95.524 550.2806,-76.7388"/>
<polygon fill="none" stroke="#000000" points="72.7847,-695.6254 76.0425,-705.707 79.7827,-695.7943 72.7847,-695.6254"/>
</g>
<!-- A9&#45;&gt;A2 -->
<g id="edge26" class="edge">
<title>A9&#45;&gt;A2</title>
<path fill="none" stroke="#000000" d="M161.5871,-698.7234C163.2139,-697.1172 164.8519,-695.5413 166.5,-694 280.3243,-587.5461 333.0671,-592.8074 462.5,-506 521.348,-466.5321 587.2768,-419.5969 633.2277,-386.432"/>
<polygon fill="none" stroke="#000000" points="159.0143,-696.3485 154.5303,-705.9477 164.0217,-701.2399 159.0143,-696.3485"/>
</g>
<!-- A9&#45;&gt;A3 -->
<g id="edge13" class="edge">
<title>A9&#45;&gt;A3</title>
<path fill="none" stroke="#000000" d="M158.2799,-699.5579C160.9586,-697.5914 163.6989,-695.7332 166.5,-694 278.0932,-624.95 328.3451,-667.2371 457.5,-644 508.8513,-634.7611 566.45,-623.9363 611.6522,-615.3355"/>
<polygon fill="#000000" stroke="#000000" points="150.4295,-705.7654 155.4824,-696.0331 154.3515,-702.6642 158.2735,-699.5629 158.2735,-699.5629 158.2735,-699.5629 154.3515,-702.6642 161.0647,-703.0927 150.4295,-705.7654 150.4295,-705.7654"/>
<polygon fill="none" stroke="#000000" points="611.672,-615.3318 616.8173,-610.2795 623.46,-613.0858 618.3147,-618.1381 611.672,-615.3318"/>
</g>
<!-- A9&#45;&gt;A13 -->
<g id="edge27" class="edge">
<title>A9&#45;&gt;A13</title>
<path fill="none" stroke="#000000" d="M159.5696,-699.376C161.8425,-697.5099 164.1531,-695.7144 166.5,-694 222.9045,-652.7964 252.2804,-673.7068 315.5,-644 382.6984,-612.4236 388.0042,-582.1347 457.5,-556 584.4321,-508.2657 639.7763,-571.5362 758.5,-506 761.465,-504.3633 764.3994,-502.6415 767.3019,-500.8425"/>
<polygon fill="none" stroke="#000000" points="157.2315,-696.771 151.9887,-705.9778 161.8286,-702.0499 157.2315,-696.771"/>
</g>
<!-- A10&#45;&gt;A1 -->
<g id="edge32" class="edge">
<title>A10&#45;&gt;A1</title>
<path fill="none" stroke="#000000" d="M249.1491,-713.5659C235.579,-578.8191 231.9911,-338.4016 348.5,-182 396.972,-116.9311 490.4124,-87.4935 550.2709,-74.8247"/>
<polygon fill="none" stroke="#000000" points="245.7064,-714.2972 250.2281,-723.8787 252.6684,-713.5687 245.7064,-714.2972"/>
</g>
<!-- A10&#45;&gt;A2 -->
<g id="edge30" class="edge">
<title>A10&#45;&gt;A2</title>
<path fill="none" stroke="#000000" d="M335.8263,-715.8083C373.4792,-666.4713 421.2213,-606.5841 467.5,-556 520.6302,-497.927 586.6025,-436.645 633.1502,-394.9877"/>
<polygon fill="none" stroke="#000000" points="332.9039,-713.8691 329.6337,-723.9466 338.4746,-718.1079 332.9039,-713.8691"/>
</g>
<!-- A10&#45;&gt;A3 -->
<g id="edge14" class="edge">
<title>A10&#45;&gt;A3</title>
<path fill="none" stroke="#000000" d="M333.6155,-716.651C342.3341,-708.227 351.6678,-700.4662 361.5,-694 402.5172,-667.0249 527.5096,-635.8198 611.3429,-617.0132"/>
<polygon fill="#000000" stroke="#000000" points="326.4392,-723.8694 330.2983,-713.605 329.9644,-720.3236 333.4896,-716.7777 333.4896,-716.7777 333.4896,-716.7777 329.9644,-720.3236 336.6809,-719.9504 326.4392,-723.8694 326.4392,-723.8694"/>
<polygon fill="none" stroke="#000000" points="611.4286,-616.9942 616.4162,-611.7862 623.1419,-614.387 618.1543,-619.5951 611.4286,-616.9942"/>
</g>
<!-- A10&#45;&gt;A13 -->
<g id="edge31" class="edge">
<title>A10&#45;&gt;A13</title>
<path fill="none" stroke="#000000" d="M337.1328,-716.4944C344.9455,-708.4637 353.114,-700.8242 361.5,-694 398.8134,-663.6358 417.2522,-670.3511 457.5,-644 509.5904,-609.8953 510.9043,-584.0297 566.5,-556 645.2382,-516.3024 683.2999,-552.0494 758.5,-506 761.3882,-504.2314 764.2513,-502.3869 767.0875,-500.4741"/>
<polygon fill="none" stroke="#000000" points="334.3926,-714.2979 330.0619,-723.9673 339.4773,-719.1091 334.3926,-714.2979"/>
</g>
<!-- A11&#45;&gt;A1 -->
<g id="edge35" class="edge">
<title>A11&#45;&gt;A1</title>
<path fill="none" stroke="#000000" d="M1133.4313,-684.0934C1118.07,-629.4832 1101.3194,-565.0386 1089.5,-506 1075.2422,-434.7818 1094.5428,-236.472 1046.5,-182 995.5743,-124.2592 767.4673,-87.2971 660.808,-72.8703"/>
<polygon fill="none" stroke="#000000" points="1130.0928,-685.1501 1136.1819,-693.8204 1136.8287,-683.2453 1130.0928,-685.1501"/>
</g>
<!-- A11&#45;&gt;A2 -->
<g id="edge33" class="edge">
<title>A11&#45;&gt;A2</title>
<path fill="none" stroke="#000000" d="M1078.3566,-694.6022C1078.0715,-694.4004 1077.786,-694.1996 1077.5,-694 1019.1881,-653.29 986.3794,-680.7598 925.5,-644 877.3368,-614.9184 878.4147,-591.1701 834.5,-556 802.9412,-530.7254 784.253,-537.1697 758.5,-506 738.4359,-481.7157 723.6439,-450.5877 713.1407,-422.1191"/>
<polygon fill="none" stroke="#000000" points="1076.4079,-697.5164 1086.4985,-700.7462 1080.6244,-691.9288 1076.4079,-697.5164"/>
</g>
<!-- A11&#45;&gt;A3 -->
<g id="edge15" class="edge">
<title>A11&#45;&gt;A3</title>
<path fill="none" stroke="#000000" d="M1078.0697,-694.358C1077.88,-694.2381 1077.6901,-694.1188 1077.5,-694 989.5231,-639.0242 950.175,-669.0363 849.5,-644 823.9754,-637.6524 796.2999,-630.157 771.3488,-623.1685"/>
<polygon fill="#000000" stroke="#000000" points="1086.4537,-700.0832 1075.6578,-698.16 1082.3246,-697.2635 1078.1955,-694.4438 1078.1955,-694.4438 1078.1955,-694.4438 1082.3246,-697.2635 1080.7332,-690.7276 1086.4537,-700.0832 1086.4537,-700.0832"/>
<polygon fill="none" stroke="#000000" points="771.2692,-623.1462 764.4095,-625.3698 759.7186,-619.8929 766.5783,-617.6693 771.2692,-623.1462"/>
</g>
<!-- A11&#45;&gt;A13 -->
<g id="edge34" class="edge">
<title>A11&#45;&gt;A13</title>
<path fill="none" stroke="#000000" d="M1098.4557,-685.1081C1066.7506,-629.9177 1029.3679,-564.8441 995.7995,-506.4103"/>
<polygon fill="none" stroke="#000000" points="1095.4778,-686.9509 1103.494,-693.8785 1101.5476,-683.4639 1095.4778,-686.9509"/>
</g>
<!-- A11&#45;&gt;A15 -->
<g id="edge36" class="edge">
<title>A11&#45;&gt;A15</title>
<path fill="none" stroke="#000000" d="M1182.2627,-683.5986C1194.9334,-514.3534 1216.4234,-227.3086 1224.9044,-114.027"/>
<polygon fill="none" stroke="#000000" points="1178.7538,-683.5874 1181.4974,-693.8209 1185.7343,-684.1101 1178.7538,-683.5874"/>
</g>
<!-- A12 -->
<g id="node13" class="node">
<title>A12</title>
<polygon fill="none" stroke="#000000" points="370.5,-896 370.5,-928 470.5,-928 470.5,-896 370.5,-896"/>
<text text-anchor="start" x="406.887" y="-909" font-family="Helvetica,sans-Serif" font-size="10.00" fill="#000000">Game</text>
<polygon fill="none" stroke="#000000" points="370.5,-780 370.5,-896 470.5,-896 470.5,-780 370.5,-780"/>
<text text-anchor="start" x="404.798" y="-877" font-family="Helvetica,sans-Serif" font-size="10.00" fill="#000000">+board</text>
<text text-anchor="start" x="398.6895" y="-865" font-family="Helvetica,sans-Serif" font-size="10.00" fill="#000000">+filename</text>
<text text-anchor="start" x="399.5245" y="-853" font-family="Helvetica,sans-Serif" font-size="10.00" fill="#000000">+difficulty</text>
<text text-anchor="start" x="380.352" y="-841" font-family="Helvetica,sans-Serif" font-size="10.00" fill="#000000">+screen_mediator</text>
<text text-anchor="start" x="386.181" y="-829" font-family="Helvetica,sans-Serif" font-size="10.00" fill="#000000">+menu_options</text>
<text text-anchor="start" x="404.2485" y="-817" font-family="Helvetica,sans-Serif" font-size="10.00" fill="#000000"> +slider</text>
<text text-anchor="start" x="382.8465" y="-805" font-family="Helvetica,sans-Serif" font-size="10.00" fill="#000000"> +selected_piece</text>
<text text-anchor="start" x="416.3315" y="-793" font-family="Helvetica,sans-Serif" font-size="10.00" fill="#000000">...</text>
<polygon fill="none" stroke="#000000" points="370.5,-700 370.5,-780 470.5,-780 470.5,-700 370.5,-700"/>
<text text-anchor="start" x="396.7455" y="-761" font-family="Helvetica,sans-Serif" font-size="10.00" fill="#000000">+__init__()</text>
<text text-anchor="start" x="381.187" y="-749" font-family="Helvetica,sans-Serif" font-size="10.00" fill="#000000">+__start_screen()</text>
<text text-anchor="start" x="386.193" y="-737" font-family="Helvetica,sans-Serif" font-size="10.00" fill="#000000"> +__init_slider()</text>
<text text-anchor="start" x="388.1315" y="-725" font-family="Helvetica,sans-Serif" font-size="10.00" fill="#000000"> +game_loop()</text>
<text text-anchor="start" x="416.3315" y="-713" font-family="Helvetica,sans-Serif" font-size="10.00" fill="#000000">...</text>
</g>
<!-- A12&#45;&gt;A0 -->
<g id="edge41" class="edge">
<title>A12&#45;&gt;A0</title>
<path fill="none" stroke="#000000" d="M416.5327,-689.691C413.672,-600.0564 409.9226,-482.5754 407.6141,-410.2408"/>
<polygon fill="none" stroke="#000000" points="413.042,-690.043 416.8593,-699.9262 420.0385,-689.8196 413.042,-690.043"/>
</g>
<!-- A12&#45;&gt;A1 -->
<g id="edge44" class="edge">
<title>A12&#45;&gt;A1</title>
<path fill="none" stroke="#000000" d="M451.1482,-690.0818C492.7705,-521.7927 565.2321,-228.8131 593.6152,-114.0533"/>
<polygon fill="none" stroke="#000000" points="447.7015,-689.4402 448.6981,-699.9881 454.4968,-691.1209 447.7015,-689.4402"/>
</g>
<!-- A12&#45;&gt;A2 -->
<g id="edge43" class="edge">
<title>A12&#45;&gt;A2</title>
<path fill="none" stroke="#000000" d="M476.4029,-699.6868C477.7513,-697.7583 479.1172,-695.8608 480.5,-694 499.8154,-668.0076 513.9114,-669.7871 533.5,-644 540.9887,-634.1417 606.8814,-507.6576 651.1741,-422.1052"/>
<polygon fill="none" stroke="#000000" points="473.2728,-698.07 470.6062,-708.3238 479.0852,-701.9709 473.2728,-698.07"/>
</g>
<!-- A12&#45;&gt;A3 -->
<g id="edge45" class="edge">
<title>A12&#45;&gt;A3</title>
<path fill="none" stroke="#000000" d="M477.634,-696.7021C478.5758,-695.7831 479.5311,-694.882 480.5,-694 525.9718,-652.6085 553.6372,-669.6961 609.5,-644 614.0501,-641.907 618.7006,-639.6757 623.3606,-637.3703"/>
<polygon fill="none" stroke="#000000" points="474.992,-694.4022 470.6754,-704.0779 480.0837,-699.2059 474.992,-694.4022"/>
</g>
<!-- A12&#45;&gt;A13 -->
<g id="edge42" class="edge">
<title>A12&#45;&gt;A13</title>
<path fill="none" stroke="#000000" d="M476.9845,-697.8122C478.1377,-696.515 479.3095,-695.2434 480.5,-694 512.1455,-660.9487 538.8545,-677.0513 570.5,-644 600.7411,-612.4155 581.6448,-584.8554 614.5,-556 665.4034,-511.2935 702.1742,-543.6461 758.5,-506 761.4721,-504.0135 764.422,-501.9514 767.3471,-499.822"/>
<polygon fill="none" stroke="#000000" points="474.2909,-695.5774 470.5834,-705.5024 479.671,-700.0557 474.2909,-695.5774"/>
</g>
<!-- A13&#45;&gt;A1 -->
<g id="edge46" class="edge">
<title>A13&#45;&gt;A1</title>
<path fill="none" stroke="#000000" d="M767.2095,-190.1973C764.3055,-187.4183 761.4006,-184.6829 758.5,-182 730.6596,-156.2489 697.3466,-130.4758 668.9237,-109.7861"/>
<polygon fill="#000000" stroke="#000000" points="660.6595,-103.8126 671.4002,-106.0237 664.7118,-106.7416 668.764,-109.6707 668.764,-109.6707 668.764,-109.6707 664.7118,-106.7416 666.1279,-113.3177 660.6595,-103.8126 660.6595,-103.8126"/>
</g>
<!-- A13&#45;&gt;A14 -->
<g id="edge47" class="edge">
<title>A13&#45;&gt;A14</title>
<path fill="none" stroke="#000000" d="M1013.2987,-181.884C1023.1172,-167.518 1032.7041,-153.4909 1041.6238,-140.4399"/>
<polygon fill="#000000" stroke="#000000" points="1047.3847,-132.0108 1045.4573,-142.806 1044.5634,-136.1388 1041.7421,-140.2668 1041.7421,-140.2668 1041.7421,-140.2668 1044.5634,-136.1388 1038.0269,-137.7277 1047.3847,-132.0108 1047.3847,-132.0108"/>
</g>
<!-- A13&#45;&gt;A15 -->
<g id="edge48" class="edge">
<title>A13&#45;&gt;A15</title>
<path fill="none" stroke="#000000" d="M1037.6129,-233.2031C1076.3165,-200.9336 1118.3487,-165.3756 1156.5,-132 1160.5681,-128.4411 1164.7394,-124.7453 1168.925,-121.0018"/>
<polygon fill="#000000" stroke="#000000" points="1176.4557,-114.2312 1172.0279,-124.2635 1172.7375,-117.5742 1169.0193,-120.9171 1169.0193,-120.9171 1169.0193,-120.9171 1172.7375,-117.5742 1166.0106,-117.5707 1176.4557,-114.2312 1176.4557,-114.2312"/>
</g>
</g>
</svg>
